<svg width="37" height="15" viewBox="0 0 37 15" fill="none" xmlns="http://www.w3.org/2000/svg">
<path d="M20.4833 5.12084V3.03625C20.4833 2.99094 20.4833 2.94563 20.438 2.90031L19.8942 2.3565L19.441 1.90332C19.3957 1.85801 19.3051 1.81268 19.2598 1.81268H15.9969C15.9063 1.81268 15.861 1.85801 15.8156 1.90332L15.3625 2.3565L14.7733 2.94561C14.728 2.99093 14.728 3.03626 14.728 3.12689V6.43505C14.728 6.48037 14.7733 6.57098 14.8187 6.6163L15.861 7.65862C15.9063 7.70394 15.9516 7.74923 16.0422 7.74923H19.3504C19.441 7.74923 19.4863 7.74925 19.5316 7.65862L20.5286 6.66163C20.5739 6.61632 20.6193 6.57099 20.6193 6.48035C20.4833 6.02718 20.4833 5.57401 20.4833 5.12084ZM15.9969 6.07252L15.9516 6.02718V3.53473C15.9516 3.48942 15.9516 3.48941 15.9969 3.44409L16.1329 3.30815C16.2235 3.21751 16.2688 3.17221 16.3594 3.12689C16.3594 3.12689 16.4048 3.08156 16.4501 3.08156H18.8066C18.8066 3.08156 18.8519 3.08158 18.8972 3.12689C19.0332 3.26285 19.1691 3.35348 19.2598 3.48943C19.2598 3.48943 19.3051 3.53475 19.3051 3.58007V6.07252C19.3051 6.07252 19.3051 6.11781 19.2598 6.16313C19.1238 6.29908 19.0332 6.43505 18.8972 6.52569L18.8519 6.57099H16.4954C16.4954 6.57099 16.4501 6.57101 16.4501 6.52569L15.9969 6.07252Z" fill="white"/>
<path d="M7.56794 7.70392H8.29302C8.38366 7.70392 8.38365 7.70392 8.42897 7.61328C8.70087 7.16011 8.97279 6.66163 9.29001 6.20846L10.0604 4.93958C10.1057 4.84895 10.151 4.84894 10.2417 4.84894H11.0574C11.148 4.84894 11.1933 4.89426 11.2386 4.93958C11.5105 5.39275 11.7824 5.84592 12.0543 6.34441C12.3263 6.79758 12.5982 7.20544 12.8247 7.65862C12.8701 7.70393 12.8701 7.74923 12.9607 7.74923H14.4562C14.4562 7.70391 14.4109 7.70392 14.4109 7.70392L14.0483 7.1148C13.5045 6.20846 12.9607 5.3021 12.4169 4.35044C12.3716 4.2598 12.3716 4.21448 12.4169 4.12385L14.3202 0.951641L14.4109 0.770389C14.4109 0.770389 14.4109 0.725055 14.4562 0.725055H13.006C12.9154 0.725055 12.8701 0.770378 12.8247 0.815695L11.9637 2.26585L11.2386 3.48942C11.1933 3.58006 11.148 3.58006 11.0574 3.58006H10.287C10.1963 3.58006 10.151 3.53472 10.1057 3.44409C9.83381 2.99092 9.56191 2.49244 9.24469 2.03927L8.47429 0.770389C8.42897 0.725071 8.38366 0.679749 8.33834 0.679749H6.88818L6.9335 0.770389L7.11477 1.08761L8.92746 4.07854C8.97278 4.16918 8.97278 4.21449 8.92746 4.30513C8.33834 5.30211 7.74921 6.29909 7.16009 7.25075L6.9335 7.61328L6.88818 7.70392H7.56794Z" fill="#8581F7"/>
<path d="M11.1933 0H10.1057C9.96978 0 9.87915 0.0906345 9.87915 0.226586V1.04229C9.87915 1.17824 9.96978 1.26888 10.1057 1.26888H11.1933C11.3293 1.26888 11.4199 1.17824 11.4199 1.04229V0.226586C11.4199 0.0906345 11.3293 0 11.1933 0Z" fill="#8581F7"/>
<path d="M2.26577 5.39278H6.11773C6.11773 5.39278 6.20836 5.39276 6.25368 5.34744C6.299 5.30212 6.299 5.25681 6.299 5.2115V4.30515C6.299 4.30515 6.299 4.21452 6.25368 4.1692C6.20836 4.12389 6.20836 4.12387 6.16304 4.12387H2.31107V2.99094H6.20836C6.25368 2.99094 6.299 2.99095 6.299 2.94563C6.34432 2.90032 6.34432 2.855 6.34432 2.80969V1.94865C6.34432 1.8127 6.29899 1.7674 6.16304 1.7674H1.08752C0.951564 1.7674 0.90625 1.8127 0.90625 1.94865V7.6133H6.07241C6.11773 7.6133 6.16304 7.61332 6.16304 7.568C6.20836 7.52268 6.20836 7.47737 6.20836 7.43205V6.57101C6.20836 6.43506 6.16305 6.38973 6.02709 6.38973H2.26577V5.39278Z" fill="white"/>
<path d="M17.3566 14.139V13.9124C17.3566 13.7764 17.3113 13.7311 17.1753 13.7311H13.3233V9.15407C13.3233 9.10876 13.3233 9.10875 13.278 9.06343C13.2327 9.01812 13.1874 9.01813 13.1421 9.01813H12.2357C12.0545 9.01813 12.0544 9.06343 12.0544 9.19938V14.7734C12.0544 14.8187 12.0544 14.8641 12.0998 14.9094C12.1451 14.9547 12.1904 14.9547 12.1904 14.9547H17.1753C17.2206 14.9547 17.2659 14.9547 17.3112 14.9094C17.3566 14.8641 17.3566 14.8187 17.3566 14.7734V14.139Z" fill="white"/>
<path d="M11.2387 9.24473C11.2387 9.19941 11.2387 9.15407 11.1934 9.10875C11.1481 9.06343 11.1027 9.06345 11.0574 9.06345H6.02721C5.9819 9.06345 5.93658 9.06343 5.89127 9.10875C5.84595 9.15407 5.84595 9.19941 5.84595 9.24473V10.1511C5.84595 10.287 5.89126 10.3323 6.02721 10.3323H7.88522V14.8187C7.88522 14.8641 7.88523 14.9094 7.93054 14.9547C7.97586 15 8.02117 15 8.06649 15H9.01816C9.15411 15 9.19942 14.9547 9.19942 14.8187V10.3323H11.0574C11.1934 10.3323 11.1934 10.287 11.1934 10.1511V9.87915C11.2387 9.65256 11.2387 9.426 11.2387 9.24473Z" fill="white"/>
<path d="M36.707 9.24473C36.707 9.19941 36.707 9.15407 36.6617 9.10875C36.6163 9.06343 36.571 9.06345 36.5257 9.06345H31.4955C31.4502 9.06345 31.4048 9.06343 31.3595 9.10875C31.3142 9.15407 31.3142 9.19941 31.3142 9.24473V10.1511C31.3142 10.287 31.3595 10.3323 31.4955 10.3323H33.3535V14.8187C33.3535 14.8641 33.3535 14.9094 33.3988 14.9547C33.4441 15 33.4894 15 33.5348 15H34.4864C34.6224 15 34.6677 14.9547 34.6677 14.8187V10.3323H36.5257C36.6616 10.3323 36.6617 10.287 36.6617 10.1511V9.87915C36.707 9.65256 36.707 9.426 36.707 9.24473Z" fill="white"/>
<path d="M6.34442 14.864V14.8187L6.02719 13.8671C5.84592 13.3686 5.66465 12.8701 5.5287 12.3716C5.16616 11.284 4.80362 10.2417 4.39577 9.19939C4.35045 9.10876 4.30513 9.06345 4.2145 9.06345H2.08458C2.03927 9.06345 1.94864 9.06345 1.94864 9.15409C1.81268 9.60726 1.63142 10.0151 1.49546 10.423L1.45014 10.6042L1.17824 11.4199L0.815705 12.4622L0.135946 14.3656L0.0453062 14.6375L0 14.8187H1.22356C1.26887 14.8187 1.3142 14.7734 1.35952 14.7281C1.45015 14.4109 1.5861 14.0483 1.72205 13.7311C1.72205 13.6858 1.76737 13.6405 1.81269 13.6405H4.62235C4.66767 13.6405 4.71299 13.6405 4.71299 13.7311L4.89426 14.2296C4.93958 14.4109 4.98489 14.5468 5.07552 14.7281C5.12084 14.8187 5.16616 14.864 5.25679 14.864H6.43504H6.34442ZM4.2145 12.5529H2.08458V12.5075L2.17522 12.281C2.35649 11.8278 2.49245 11.3746 2.67372 10.8761L2.80966 10.5136C2.80966 10.4683 2.80966 10.4683 2.85498 10.423C2.9003 10.3323 2.9003 10.287 2.94562 10.2417H3.39879C3.44411 10.2417 3.4441 10.2417 3.4441 10.287L3.94259 11.7372L4.2145 12.5529Z" fill="white"/>
<path d="M24.154 14.864V14.8187L23.8368 13.8671C23.6555 13.3686 23.4742 12.8701 23.3383 12.3716C22.9757 11.284 22.6132 10.2417 22.2053 9.19939C22.16 9.10876 22.1147 9.06345 22.0241 9.06345H19.8942C19.8488 9.06345 19.7582 9.06345 19.7582 9.15409C19.6223 9.60726 19.441 10.0151 19.305 10.423L19.2597 10.6042L18.9878 11.4199L18.6253 12.4622L17.9455 14.3656L17.8549 14.6375L17.8096 14.8187H19.0331C19.0785 14.8187 19.1238 14.7734 19.1691 14.7281C19.2597 14.4109 19.3957 14.0483 19.5316 13.7311C19.5316 13.6858 19.5769 13.6405 19.6223 13.6405H22.4319C22.4773 13.6405 22.5226 13.6405 22.5226 13.7311L22.7038 14.2296C22.7491 14.4109 22.7945 14.5468 22.8851 14.7281C22.9304 14.8187 22.9757 14.864 23.0664 14.864H24.2446H24.154ZM21.9788 12.5529H19.8488V12.5075L19.9395 12.281C20.1208 11.8278 20.2567 11.3746 20.438 10.8761L20.5739 10.5136C20.5739 10.4683 20.5739 10.4683 20.6192 10.423C20.6646 10.3323 20.6646 10.287 20.7099 10.2417H21.163C21.2084 10.2417 21.2084 10.2417 21.2084 10.287L21.7069 11.7372L21.9788 12.5529Z" fill="white"/>
<path d="M30.6344 9.29004C30.6344 9.10878 30.5891 9.10876 30.4532 9.10876H29.4109V13.142L26.1933 9.1994C26.148 9.15409 26.0574 9.10876 26.0121 9.10876H25.0604C24.8791 9.10876 24.8792 9.15409 24.8792 9.29004V14.7734C24.8792 14.9547 24.9245 14.9547 25.0604 14.9547H25.9214C26.1027 14.9547 26.1027 14.9094 26.1027 14.7734V11.0574L29.1843 14.8188C29.2749 14.9094 29.3656 14.9547 29.4562 14.9547H30.4532C30.6344 14.9547 30.6344 14.9094 30.6344 14.7734V11.42V9.29004Z" fill="white"/>
</svg>
